<?xml version="1.0" encoding="utf-8" ?>
<svg baseProfile="full" height="600" version="1.1" width="800" xmlns="http://www.w3.org/2000/svg" xmlns:ev="http://www.w3.org/2001/xml-events" xmlns:xlink="http://www.w3.org/1999/xlink"><defs /><polygon fill="blue" opacity="0.5" points="84.92005616668551,22.319846585342844 55.530793552061866,109.81984658534283 175.37090588543288,60.790890800033516" stroke="black" /><polygon fill="blue" opacity="0.5" points="55.530793552061866,109.81984658534283 175.37090588543288,60.790890800033516 145.98164327080923,148.2908908000335" stroke="black" /><polygon fill="red" opacity="0.5" points="54.01835672919077,51.7091091999665 24.629094114567124,139.2091091999665 144.46920644793812,90.18015341465717" stroke="black" /><polygon fill="red" opacity="0.5" points="24.629094114567124,139.2091091999665 144.46920644793812,90.18015341465717 115.07994383331449,177.68015341465716" stroke="black" /><polygon fill="green" opacity="0.5" points="84.92005616668551,22.319846585342844 55.530793552061866,109.81984658534283 24.629094114567124,139.2091091999665" stroke="black" /><polygon fill="green" opacity="0.5" points="84.92005616668551,22.319846585342844 54.01835672919077,51.7091091999665 24.629094114567124,139.2091091999665" stroke="black" /><polygon fill="purple" opacity="0.5" points="175.37090588543288,60.790890800033516 145.98164327080923,148.2908908000335 115.07994383331449,177.68015341465716" stroke="black" /><polygon fill="purple" opacity="0.5" points="175.37090588543288,60.790890800033516 144.46920644793812,90.18015341465717 115.07994383331449,177.68015341465716" stroke="black" /><polygon fill="yellow" opacity="0.5" points="55.530793552061866,109.81984658534283 145.98164327080923,148.2908908000335 115.07994383331449,177.68015341465716" stroke="black" /><polygon fill="yellow" opacity="0.5" points="55.530793552061866,109.81984658534283 24.629094114567124,139.2091091999665 115.07994383331449,177.68015341465716" stroke="black" /><polygon fill="white" opacity="0.5" points="84.92005616668551,22.319846585342844 175.37090588543288,60.790890800033516 144.46920644793812,90.18015341465717" stroke="black" /><polygon fill="white" opacity="0.5" points="84.92005616668551,22.319846585342844 54.01835672919077,51.7091091999665 144.46920644793812,90.18015341465717" stroke="black" /></svg>