<?xml version="1.0" encoding="utf-8" ?>
<svg baseProfile="full" height="600" version="1.1" width="800" xmlns="http://www.w3.org/2000/svg" xmlns:ev="http://www.w3.org/2001/xml-events" xmlns:xlink="http://www.w3.org/1999/xlink"><defs /><polygon fill="blue" opacity="0.5" points="263.4136003836286,87.88941936936233 183.85184875416672,93.86117334236171 335.0513233222163,226.5770750281764" stroke="black" /><polygon fill="blue" opacity="0.5" points="183.85184875416672,93.86117334236171 335.0513233222163,226.5770750281764 255.48957169275445,232.54882900117582" stroke="black" /><polygon fill="red" opacity="0.5" points="144.51042830724555,167.45117099882418 64.94867667778368,173.4229249718236 216.14815124583328,306.1388266576383" stroke="black" /><polygon fill="red" opacity="0.5" points="64.94867667778368,173.4229249718236 216.14815124583328,306.1388266576383 136.5863996163714,312.1105806306377" stroke="black" /><polygon fill="green" opacity="0.5" points="263.4136003836286,87.88941936936233 183.85184875416672,93.86117334236171 64.94867667778368,173.4229249718236" stroke="black" /><polygon fill="green" opacity="0.5" points="263.4136003836286,87.88941936936233 144.51042830724555,167.45117099882418 64.94867667778368,173.4229249718236" stroke="black" /><polygon fill="purple" opacity="0.5" points="335.0513233222163,226.5770750281764 255.48957169275445,232.54882900117582 136.5863996163714,312.1105806306377" stroke="black" /><polygon fill="purple" opacity="0.5" points="335.0513233222163,226.5770750281764 216.14815124583328,306.1388266576383 136.5863996163714,312.1105806306377" stroke="black" /><polygon fill="yellow" opacity="0.5" points="183.85184875416672,93.86117334236171 255.48957169275445,232.54882900117582 136.5863996163714,312.1105806306377" stroke="black" /><polygon fill="yellow" opacity="0.5" points="183.85184875416672,93.86117334236171 64.94867667778368,173.4229249718236 136.5863996163714,312.1105806306377" stroke="black" /><polygon fill="white" opacity="0.5" points="263.4136003836286,87.88941936936233 335.0513233222163,226.5770750281764 216.14815124583328,306.1388266576383" stroke="black" /><polygon fill="white" opacity="0.5" points="263.4136003836286,87.88941936936233 144.51042830724555,167.45117099882418 216.14815124583328,306.1388266576383" stroke="black" /><polygon fill="blue" opacity="0.5" points="322.8504736699524,218.3665151431701 296.8193285131012,104.10889236359999 328.383564380826,269.85996247954876" stroke="black" /><polygon fill="blue" opacity="0.5" points="296.8193285131012,104.10889236359999 328.383564380826,269.85996247954876 302.3524192239747,155.6023396999787" stroke="black" /><polygon fill="red" opacity="0.5" points="197.64758077602528,244.3976603000213 171.61643561917404,130.14003752045124 203.1806714868988,295.8911076364" stroke="black" /><polygon fill="red" opacity="0.5" points="171.61643561917404,130.14003752045124 203.1806714868988,295.8911076364 177.1495263300476,181.6334848568299" stroke="black" /><polygon fill="green" opacity="0.5" points="322.8504736699524,218.3665151431701 296.8193285131012,104.10889236359999 171.61643561917404,130.14003752045124" stroke="black" /><polygon fill="green" opacity="0.5" points="322.8504736699524,218.3665151431701 197.64758077602528,244.3976603000213 171.61643561917404,130.14003752045124" stroke="black" /><polygon fill="purple" opacity="0.5" points="328.383564380826,269.85996247954876 302.3524192239747,155.6023396999787 177.1495263300476,181.6334848568299" stroke="black" /><polygon fill="purple" opacity="0.5" points="328.383564380826,269.85996247954876 203.1806714868988,295.8911076364 177.1495263300476,181.6334848568299" stroke="black" /><polygon fill="yellow" opacity="0.5" points="296.8193285131012,104.10889236359999 302.3524192239747,155.6023396999787 177.1495263300476,181.6334848568299" stroke="black" /><polygon fill="yellow" opacity="0.5" points="296.8193285131012,104.10889236359999 171.61643561917404,130.14003752045124 177.1495263300476,181.6334848568299" stroke="black" /><polygon fill="white" opacity="0.5" points="322.8504736699524,218.3665151431701 328.383564380826,269.85996247954876 203.1806714868988,295.8911076364" stroke="black" /><polygon fill="white" opacity="0.5" points="322.8504736699524,218.3665151431701 197.64758077602528,244.3976603000213 203.1806714868988,295.8911076364" stroke="black" /><polygon fill="blue" opacity="0.5" points="328.75762623162325,283.5604964844495 358.8522311489979,205.25038346229704 338.5359561196259,224.8442214550776" stroke="black" /><polygon fill="blue" opacity="0.5" points="358.8522311489979,205.25038346229704 338.5359561196259,224.8442214550776 368.6305610370006,146.5341084329251" stroke="black" /><polygon fill="red" opacity="0.5" points="231.36943896299945,253.4658915670749 261.4640438803741,175.1557785449224 241.14776885100216,194.74961653770296" stroke="black" /><polygon fill="red" opacity="0.5" points="261.4640438803741,175.1557785449224 241.14776885100216,194.74961653770296 271.24237376837675,116.43950351555048" stroke="black" /><polygon fill="green" opacity="0.5" points="328.75762623162325,283.5604964844495 358.8522311489979,205.25038346229704 261.4640438803741,175.1557785449224" stroke="black" /><polygon fill="green" opacity="0.5" points="328.75762623162325,283.5604964844495 231.36943896299945,253.4658915670749 261.4640438803741,175.1557785449224" stroke="black" /><polygon fill="purple" opacity="0.5" points="338.5359561196259,224.8442214550776 368.6305610370006,146.5341084329251 271.24237376837675,116.43950351555048" stroke="black" /><polygon fill="purple" opacity="0.5" points="338.5359561196259,224.8442214550776 241.14776885100216,194.74961653770296 271.24237376837675,116.43950351555048" stroke="black" /><polygon fill="yellow" opacity="0.5" points="358.8522311489979,205.25038346229704 368.6305610370006,146.5341084329251 271.24237376837675,116.43950351555048" stroke="black" /><polygon fill="yellow" opacity="0.5" points="358.8522311489979,205.25038346229704 261.4640438803741,175.1557785449224 271.24237376837675,116.43950351555048" stroke="black" /><polygon fill="white" opacity="0.5" points="328.75762623162325,283.5604964844495 338.5359561196259,224.8442214550776 241.14776885100216,194.74961653770296" stroke="black" /><polygon fill="white" opacity="0.5" points="328.75762623162325,283.5604964844495 231.36943896299945,253.4658915670749 241.14776885100216,194.74961653770296" stroke="black" /><polygon fill="blue" opacity="0.5" points="334.4190382915951,244.01495610787106 375.1546551258796,264.7137255534248 379.66052414703813,176.02189128085968" stroke="black" /><polygon fill="blue" opacity="0.5" points="375.1546551258796,264.7137255534248 379.66052414703813,176.02189128085968 420.3961409813226,196.72066072641343" stroke="black" /><polygon fill="red" opacity="0.5" points="279.6038590186774,203.27933927358657 320.33947585296187,223.97810871914032 324.8453448741204,135.2862744465752" stroke="black" /><polygon fill="red" opacity="0.5" points="320.33947585296187,223.97810871914032 324.8453448741204,135.2862744465752 365.5809617084049,155.98504389212894" stroke="black" /><polygon fill="green" opacity="0.5" points="334.4190382915951,244.01495610787106 375.1546551258796,264.7137255534248 320.33947585296187,223.97810871914032" stroke="black" /><polygon fill="green" opacity="0.5" points="334.4190382915951,244.01495610787106 279.6038590186774,203.27933927358657 320.33947585296187,223.97810871914032" stroke="black" /><polygon fill="purple" opacity="0.5" points="379.66052414703813,176.02189128085968 420.3961409813226,196.72066072641343 365.5809617084049,155.98504389212894" stroke="black" /><polygon fill="purple" opacity="0.5" points="379.66052414703813,176.02189128085968 324.8453448741204,135.2862744465752 365.5809617084049,155.98504389212894" stroke="black" /><polygon fill="yellow" opacity="0.5" points="375.1546551258796,264.7137255534248 420.3961409813226,196.72066072641343 365.5809617084049,155.98504389212894" stroke="black" /><polygon fill="yellow" opacity="0.5" points="375.1546551258796,264.7137255534248 320.33947585296187,223.97810871914032 365.5809617084049,155.98504389212894" stroke="black" /><polygon fill="white" opacity="0.5" points="334.4190382915951,244.01495610787106 379.66052414703813,176.02189128085968 324.8453448741204,135.2862744465752" stroke="black" /><polygon fill="white" opacity="0.5" points="334.4190382915951,244.01495610787106 279.6038590186774,203.27933927358657 324.8453448741204,135.2862744465752" stroke="black" /><polygon fill="blue" opacity="0.5" points="368.7973483465461,183.65643639634055 382.1252946668539,245.77049209885868 431.5004059025788,167.55745422144918" stroke="black" /><polygon fill="blue" opacity="0.5" points="382.1252946668539,245.77049209885868 431.5004059025788,167.55745422144918 444.8283522228867,229.67150992396728" stroke="black" /><polygon fill="red" opacity="0.5" points="355.1716477771133,170.32849007603272 368.4995940974212,232.44254577855082 417.8747053331461,154.22950790114132" stroke="black" /><polygon fill="red" opacity="0.5" points="368.4995940974212,232.44254577855082 417.8747053331461,154.22950790114132 431.2026516534539,216.34356360365945" stroke="black" /><polygon fill="green" opacity="0.5" points="368.7973483465461,183.65643639634055 382.1252946668539,245.77049209885868 368.4995940974212,232.44254577855082" stroke="black" /><polygon fill="green" opacity="0.5" points="368.7973483465461,183.65643639634055 355.1716477771133,170.32849007603272 368.4995940974212,232.44254577855082" stroke="black" /><polygon fill="purple" opacity="0.5" points="431.5004059025788,167.55745422144918 444.8283522228867,229.67150992396728 431.2026516534539,216.34356360365945" stroke="black" /><polygon fill="purple" opacity="0.5" points="431.5004059025788,167.55745422144918 417.8747053331461,154.22950790114132 431.2026516534539,216.34356360365945" stroke="black" /><polygon fill="yellow" opacity="0.5" points="382.1252946668539,245.77049209885868 444.8283522228867,229.67150992396728 431.2026516534539,216.34356360365945" stroke="black" /><polygon fill="yellow" opacity="0.5" points="382.1252946668539,245.77049209885868 368.4995940974212,232.44254577855082 431.2026516534539,216.34356360365945" stroke="black" /><polygon fill="white" opacity="0.5" points="368.7973483465461,183.65643639634055 431.5004059025788,167.55745422144918 417.8747053331461,154.22950790114132" stroke="black" /><polygon fill="white" opacity="0.5" points="368.7973483465461,183.65643639634055 355.1716477771133,170.32849007603272 417.8747053331461,154.22950790114132" stroke="black" /><polygon fill="blue" opacity="0.5" points="425.89237621283394,162.48760174072953 410.48393849513815,211.4569919354148 473.3146713101766,173.1345703468894" stroke="black" /><polygon fill="blue" opacity="0.5" points="410.48393849513815,211.4569919354148 473.3146713101766,173.1345703468894 457.9062335924808,222.10396054157468" stroke="black" /><polygon fill="red" opacity="0.5" points="442.0937664075192,177.89603945842532 426.6853286898234,226.8654296531106 489.51606150486185,188.5430080645852" stroke="black" /><polygon fill="red" opacity="0.5" points="426.6853286898234,226.8654296531106 489.51606150486185,188.5430080645852 474.10762378716606,237.51239825927047" stroke="black" /><polygon fill="green" opacity="0.5" points="425.89237621283394,162.48760174072953 410.48393849513815,211.4569919354148 426.6853286898234,226.8654296531106" stroke="black" /><polygon fill="green" opacity="0.5" points="425.89237621283394,162.48760174072953 442.0937664075192,177.89603945842532 426.6853286898234,226.8654296531106" stroke="black" /><polygon fill="purple" opacity="0.5" points="473.3146713101766,173.1345703468894 457.9062335924808,222.10396054157468 474.10762378716606,237.51239825927047" stroke="black" /><polygon fill="purple" opacity="0.5" points="473.3146713101766,173.1345703468894 489.51606150486185,188.5430080645852 474.10762378716606,237.51239825927047" stroke="black" /><polygon fill="yellow" opacity="0.5" points="410.48393849513815,211.4569919354148 457.9062335924808,222.10396054157468 474.10762378716606,237.51239825927047" stroke="black" /><polygon fill="yellow" opacity="0.5" points="410.48393849513815,211.4569919354148 426.6853286898234,226.8654296531106 474.10762378716606,237.51239825927047" stroke="black" /><polygon fill="white" opacity="0.5" points="425.89237621283394,162.48760174072953 473.3146713101766,173.1345703468894 489.51606150486185,188.5430080645852" stroke="black" /><polygon fill="white" opacity="0.5" points="425.89237621283394,162.48760174072953 442.0937664075192,177.89603945842532 489.51606150486185,188.5430080645852" stroke="black" /><polygon fill="blue" opacity="0.5" points="485.45374171817457,168.89644516851743 464.5971058990209,204.88978417904576 504.2331409601877,174.25358000180057" stroke="black" /><polygon fill="blue" opacity="0.5" points="464.5971058990209,204.88978417904576 504.2331409601877,174.25358000180057 483.37650514103404,210.24691901232893" stroke="black" /><polygon fill="red" opacity="0.5" points="516.623494858966,189.75308098767107 495.7668590398123,225.74641999819943 535.4028941009791,195.11021582095424" stroke="black" /><polygon fill="red" opacity="0.5" points="495.7668590398123,225.74641999819943 535.4028941009791,195.11021582095424 514.5462582818254,231.10355483148257" stroke="black" /><polygon fill="green" opacity="0.5" points="485.45374171817457,168.89644516851743 464.5971058990209,204.88978417904576 495.7668590398123,225.74641999819943" stroke="black" /><polygon fill="green" opacity="0.5" points="485.45374171817457,168.89644516851743 516.623494858966,189.75308098767107 495.7668590398123,225.74641999819943" stroke="black" /><polygon fill="purple" opacity="0.5" points="504.2331409601877,174.25358000180057 483.37650514103404,210.24691901232893 514.5462582818254,231.10355483148257" stroke="black" /><polygon fill="purple" opacity="0.5" points="504.2331409601877,174.25358000180057 535.4028941009791,195.11021582095424 514.5462582818254,231.10355483148257" stroke="black" /><polygon fill="yellow" opacity="0.5" points="464.5971058990209,204.88978417904576 483.37650514103404,210.24691901232893 514.5462582818254,231.10355483148257" stroke="black" /><polygon fill="yellow" opacity="0.5" points="464.5971058990209,204.88978417904576 495.7668590398123,225.74641999819943 514.5462582818254,231.10355483148257" stroke="black" /><polygon fill="white" opacity="0.5" points="485.45374171817457,168.89644516851743 504.2331409601877,174.25358000180057 535.4028941009791,195.11021582095424" stroke="black" /><polygon fill="white" opacity="0.5" points="485.45374171817457,168.89644516851743 516.623494858966,189.75308098767107 535.4028941009791,195.11021582095424" stroke="black" /><polygon fill="blue" opacity="0.5" points="536.2761274149503,180.08704469100235 529.4522188989528,212.93992801955247 537.7265939462616,180.2361634644499" stroke="black" /><polygon fill="blue" opacity="0.5" points="529.4522188989528,212.93992801955247 537.7265939462616,180.2361634644499 530.902685430264,213.08904679300002" stroke="black" /><polygon fill="red" opacity="0.5" points="569.097314569736,186.91095320699998 562.2734060537384,219.7638365355501 570.5477811010472,187.06007198044753" stroke="black" /><polygon fill="red" opacity="0.5" points="562.2734060537384,219.7638365355501 570.5477811010472,187.06007198044753 563.7238725850497,219.91295530899765" stroke="black" /><polygon fill="green" opacity="0.5" points="536.2761274149503,180.08704469100235 529.4522188989528,212.93992801955247 562.2734060537384,219.7638365355501" stroke="black" /><polygon fill="green" opacity="0.5" points="536.2761274149503,180.08704469100235 569.097314569736,186.91095320699998 562.2734060537384,219.7638365355501" stroke="black" /><polygon fill="purple" opacity="0.5" points="537.7265939462616,180.2361634644499 530.902685430264,213.08904679300002 563.7238725850497,219.91295530899765" stroke="black" /><polygon fill="purple" opacity="0.5" points="537.7265939462616,180.2361634644499 570.5477811010472,187.06007198044753 563.7238725850497,219.91295530899765" stroke="black" /><polygon fill="yellow" opacity="0.5" points="529.4522188989528,212.93992801955247 530.902685430264,213.08904679300002 563.7238725850497,219.91295530899765" stroke="black" /><polygon fill="yellow" opacity="0.5" points="529.4522188989528,212.93992801955247 562.2734060537384,219.7638365355501 563.7238725850497,219.91295530899765" stroke="black" /><polygon fill="white" opacity="0.5" points="536.2761274149503,180.08704469100235 537.7265939462616,180.2361634644499 570.5477811010472,187.06007198044753" stroke="black" /><polygon fill="white" opacity="0.5" points="536.2761274149503,180.08704469100235 569.097314569736,186.91095320699998 570.5477811010472,187.06007198044753" stroke="black" /><polygon fill="blue" opacity="0.5" points="582.0089102075166,191.3100269223404 589.8980303189768,216.9652142107407 584.5722407176771,190.92390590071957" stroke="black" /><polygon fill="blue" opacity="0.5" points="589.8980303189768,216.9652142107407 584.5722407176771,190.92390590071957 592.4613608291373,216.57909318911987" stroke="black" /><polygon fill="red" opacity="0.5" points="607.5386391708627,183.42090681088013 615.4277592823229,209.07609409928043 610.1019696810232,183.0347857892593" stroke="black" /><polygon fill="red" opacity="0.5" points="615.4277592823229,209.07609409928043 610.1019696810232,183.0347857892593 617.9910897924834,208.6899730776596" stroke="black" /><polygon fill="green" opacity="0.5" points="582.0089102075166,191.3100269223404 589.8980303189768,216.9652142107407 615.4277592823229,209.07609409928043" stroke="black" /><polygon fill="green" opacity="0.5" points="582.0089102075166,191.3100269223404 607.5386391708627,183.42090681088013 615.4277592823229,209.07609409928043" stroke="black" /><polygon fill="purple" opacity="0.5" points="584.5722407176771,190.92390590071957 592.4613608291373,216.57909318911987 617.9910897924834,208.6899730776596" stroke="black" /><polygon fill="purple" opacity="0.5" points="584.5722407176771,190.92390590071957 610.1019696810232,183.0347857892593 617.9910897924834,208.6899730776596" stroke="black" /><polygon fill="yellow" opacity="0.5" points="589.8980303189768,216.9652142107407 592.4613608291373,216.57909318911987 617.9910897924834,208.6899730776596" stroke="black" /><polygon fill="yellow" opacity="0.5" points="589.8980303189768,216.9652142107407 615.4277592823229,209.07609409928043 617.9910897924834,208.6899730776596" stroke="black" /><polygon fill="white" opacity="0.5" points="582.0089102075166,191.3100269223404 584.5722407176771,190.92390590071957 610.1019696810232,183.0347857892593" stroke="black" /><polygon fill="white" opacity="0.5" points="582.0089102075166,191.3100269223404 607.5386391708627,183.42090681088013 610.1019696810232,183.0347857892593" stroke="black" /></svg>