<?xml version="1.0" encoding="utf-8" ?>
<svg baseProfile="full" height="600" version="1.1" width="800" xmlns="http://www.w3.org/2000/svg" xmlns:ev="http://www.w3.org/2001/xml-events" xmlns:xlink="http://www.w3.org/1999/xlink"><defs /><polygon fill="blue" opacity="0.5" points="61.48820450419768,38.76284032747973 61.48820450419768,136.5776004008603 159.30296457757825,43.08556744534969" stroke="black" /><polygon fill="blue" opacity="0.5" points="61.48820450419768,136.5776004008603 159.30296457757825,43.08556744534969 159.30296457757825,140.90032751873025" stroke="black" /><polygon fill="red" opacity="0.5" points="40.69703542242175,59.09967248126974 40.69703542242175,156.91443255465032 138.51179549580232,63.4223995991397" stroke="black" /><polygon fill="red" opacity="0.5" points="40.69703542242175,156.91443255465032 138.51179549580232,63.4223995991397 138.51179549580232,161.23715967252028" stroke="black" /><polygon fill="green" opacity="0.5" points="61.48820450419768,38.76284032747973 61.48820450419768,136.5776004008603 40.69703542242175,156.91443255465032" stroke="black" /><polygon fill="green" opacity="0.5" points="61.48820450419768,38.76284032747973 40.69703542242175,59.09967248126974 40.69703542242175,156.91443255465032" stroke="black" /><polygon fill="purple" opacity="0.5" points="159.30296457757825,43.08556744534969 159.30296457757825,140.90032751873025 138.51179549580232,161.23715967252028" stroke="black" /><polygon fill="purple" opacity="0.5" points="159.30296457757825,43.08556744534969 138.51179549580232,63.4223995991397 138.51179549580232,161.23715967252028" stroke="black" /><polygon fill="yellow" opacity="0.5" points="61.48820450419768,136.5776004008603 159.30296457757825,140.90032751873025 138.51179549580232,161.23715967252028" stroke="black" /><polygon fill="yellow" opacity="0.5" points="61.48820450419768,136.5776004008603 40.69703542242175,156.91443255465032 138.51179549580232,161.23715967252028" stroke="black" /><polygon fill="white" opacity="0.5" points="61.48820450419768,38.76284032747973 159.30296457757825,43.08556744534969 138.51179549580232,63.4223995991397" stroke="black" /><polygon fill="white" opacity="0.5" points="61.48820450419768,38.76284032747973 40.69703542242175,59.09967248126974 138.51179549580232,63.4223995991397" stroke="black" /></svg>