<?xml version="1.0" encoding="utf-8" ?>
<svg baseProfile="full" height="600" version="1.1" width="800" xmlns="http://www.w3.org/2000/svg" xmlns:ev="http://www.w3.org/2001/xml-events" xmlns:xlink="http://www.w3.org/1999/xlink"><defs /><polygon fill="blue" opacity="0.5" points="200.0,250.0 100.0,200.0 300.0,200.0" stroke="black" /><polygon fill="blue" opacity="0.5" points="100.0,200.0 100.0,130.0 150.0,200.0" stroke="black" /><polygon fill="red" opacity="0.5" points="150.0,200.0 200.0,170.0 250.0,200.0" stroke="black" /><polygon fill="red" opacity="0.5" points="250.0,200.0 300.0,130.0 300.0,200.0" stroke="black" /><polygon fill="blue" opacity="0.5" points="312.5,221.65063509461098 256.69872981077805,225.0 343.30127018922195,175.0" stroke="black" /><polygon fill="blue" opacity="0.5" points="256.69872981077805,225.0 239.19872981077805,194.68911086754463 278.34936490538905,212.5" stroke="black" /><polygon fill="red" opacity="0.5" points="278.34936490538905,212.5 292.5,187.00961894323342 321.65063509461095,187.5" stroke="black" /><polygon fill="red" opacity="0.5" points="321.65063509461095,187.5 325.80127018922195,144.68911086754466 343.30127018922195,175.0" stroke="black" /><polygon fill="blue" opacity="0.5" points="410.8253175473055,206.25 387.5,221.65063509461098 412.5,178.34936490538902" stroke="black" /><polygon fill="blue" opacity="0.5" points="387.5,221.65063509461098 372.3445554337723,212.90063509461098 393.75,210.82531754730547" stroke="black" /><polygon fill="red" opacity="0.5" points="393.75,210.82531754730547 393.50480947161674,196.25 406.25,189.17468245269453" stroke="black" /><polygon fill="red" opacity="0.5" points="406.25,189.17468245269453 397.3445554337723,169.59936490538902 412.5,178.34936490538902" stroke="black" /><polygon fill="blue" opacity="0.5" points="506.25,200.0 500.0,212.5 500.0,187.5" stroke="black" /><polygon fill="blue" opacity="0.5" points="500.0,212.5 491.25,212.5 500.0,206.25" stroke="black" /><polygon fill="red" opacity="0.5" points="500.0,206.25 496.25,200.0 500.0,193.75" stroke="black" /><polygon fill="red" opacity="0.5" points="500.0,193.75 491.25,187.5 500.0,187.5" stroke="black" /><polygon fill="blue" opacity="0.5" points="602.7063293868264,198.4375 603.125,205.41265877365274 596.875,194.58734122634726" stroke="black" /><polygon fill="blue" opacity="0.5" points="603.125,205.41265877365274 599.3361388584431,207.60015877365274 601.5625,202.70632938682638" stroke="black" /><polygon fill="red" opacity="0.5" points="601.5625,202.70632938682638 598.3762023679042,200.9375 598.4375,197.29367061317362" stroke="black" /><polygon fill="red" opacity="0.5" points="598.4375,197.29367061317362 593.0861388584431,196.77484122634726 596.875,194.58734122634726" stroke="black" /></svg>