<?xml version="1.0" encoding="utf-8" ?>
<svg baseProfile="full" height="600" version="1.1" width="800" xmlns="http://www.w3.org/2000/svg" xmlns:ev="http://www.w3.org/2001/xml-events" xmlns:xlink="http://www.w3.org/1999/xlink"><defs /><polygon fill="blue" opacity="0.5" points="0,0 0,200 200,0" stroke="black" /><polygon fill="blue" opacity="0.5" points="0,200 200,0 200,200" stroke="black" /><polygon fill="red" opacity="0.5" points="0,0 0,200 200,0" stroke="black" /><polygon fill="red" opacity="0.5" points="0,200 200,0 200,200" stroke="black" /><polygon fill="green" opacity="0.5" points="0,0 0,200 0,200" stroke="black" /><polygon fill="green" opacity="0.5" points="0,0 0,0 0,200" stroke="black" /><polygon fill="purple" opacity="0.5" points="200,0 200,200 200,200" stroke="black" /><polygon fill="purple" opacity="0.5" points="200,0 200,0 200,200" stroke="black" /><polygon fill="yellow" opacity="0.5" points="0,200 200,200 200,200" stroke="black" /><polygon fill="yellow" opacity="0.5" points="0,200 0,200 200,200" stroke="black" /><polygon fill="white" opacity="0.5" points="0,0 200,0 200,0" stroke="black" /><polygon fill="white" opacity="0.5" points="0,0 0,0 200,0" stroke="black" /></svg>